<?xml version="1.0" encoding="utf-8"?>
<!-- Generator: Adobe Illustrator 21.0.2, SVG Export Plug-In . SVG Version: 6.00 Build 0)  -->
<svg version="1.1" id="Layer_1" xmlns="http://www.w3.org/2000/svg" xmlns:xlink="http://www.w3.org/1999/xlink" x="0px" y="0px"
	 viewBox="0 0 16 60.6" style="enable-background:new 0 0 16 60.6;" xml:space="preserve">
<style type="text/css">
	.st0{opacity:0.8;}
	.st1{fill:#555555;}
</style>
<title>Can&amp;apos;t keep up</title>
<g id="Layer_2">
	<g id="Top_panel">
		<g id="Status_Panel">
			<g id="_6izoQk.tif" class="st0">
				<path class="st1" d="M8.3,47.8c-2.5,0-4.7-1.9-4.9-4.5c-0.6-6.8-1.3-13.6-2-20.4C1,18.2,0.4,13.4,0,8.5
					c-0.4-3.2,1.4-6.3,4.4-7.6c2.6-1.4,5.7-1.2,8.1,0.6c2.9,2,3.8,4.8,3.6,8.1c-0.4,6.1-0.9,12.2-1.4,18.3c-0.4,5-0.9,10-1,15
					C13.5,45.6,10.8,48.1,8.3,47.8z"/>
				<path class="st1" d="M13.5,55.3c0,2.8-2.1,5.1-4.9,5.3c-2.8,0-5-1.5-5.4-5.1c-0.3-2.5,2.2-5.2,4.8-5.3c2.8-0.2,5.3,1.9,5.6,4.7
					C13.5,55,13.5,55.1,13.5,55.3z"/>
			</g>
		</g>
	</g>
</g>
</svg>
