<svg xmlns="http://www.w3.org/2000/svg" viewBox="0 0 16.03 60.56"><defs><style>.cls-1{opacity:0.8;}.cls-2{fill:gray;}</style></defs><title>Can&amp;apos;t keep up</title><g id="Layer_2" data-name="Layer 2"><g id="Top_panel" data-name="Top panel"><g id="Status_Panel" data-name="Status Panel"><g id="_6izoQk.tif" data-name="6izoQk.tif" class="cls-1"><path class="cls-2" d="M8.31,47.84a4.94,4.94,0,0,1-4.92-4.45C2.77,36.59,2.11,29.81,1.44,23,1,18.18.39,13.36,0,8.51A7.39,7.39,0,0,1,4.37.92a7.39,7.39,0,0,1,8.07.59c2.87,2,3.79,4.77,3.56,8.06-.43,6.12-.93,12.23-1.39,18.34-.37,5-.85,10-1,15C13.51,45.58,10.77,48.11,8.31,47.84Z"/><path class="cls-2" d="M13.53,55.26a5.26,5.26,0,0,1-4.9,5.29C5.8,60.6,3.58,59,3.19,55.46c-.28-2.52,2.23-5.2,4.77-5.31A5.16,5.16,0,0,1,13.53,55.26Z"/></g></g></g></g></svg>