<svg xmlns="http://www.w3.org/2000/svg" viewBox="0 0 48.67 65.37"><defs><style>.cls-1{opacity:0.8;}.cls-2{fill:gray;}</style></defs><title>Decrease volume</title><g id="Layer_2" data-name="Layer 2"><g id="Top_panel" data-name="Top panel"><g id="Status_Panel" data-name="Status Panel"><g id="NM85wB.tif" class="cls-1"><path class="cls-2" d="M31.34,43.67H28a3.25,3.25,0,0,0-1,.07,15.76,15.76,0,0,0-1.58.75,12.28,12.28,0,0,0,1.18,1.24c1.24,1,2.57,1.86,3.76,2.91,1,.9.91,1.77-.28,2.41A3.19,3.19,0,0,0,28,54.7a6.5,6.5,0,0,1-.09,2,2.34,2.34,0,0,1-3.08,2.09c-2.33-.57-4.64-1.2-7-1.8-1.36-.35-1.45-.28-1.46,1.13,0,2,0,4,0,6,0,.87-.24,1.25-1.17,1.25q-7.08,0-14.16,0C.3,65.37,0,65.05,0,64.21,0,62.08,0,60,0,57.83Q0,30.72,0,3.61C0,.72-.27,1.26,2.31.72,13.21-1.57,22.37,1.6,29.59,10c4,4.6,4.94,10.09,3.53,16a3,3,0,0,0,.25,2c.86,1.6,2,3,2.81,4.67a15.22,15.22,0,0,1,1.4,4.21c.2,1.2-.56,1.84-1.81,1.91a18,18,0,0,1-2.66-.05c-1.16-.11-1.67.21-1.75,1.39S31.34,42.32,31.34,43.67Z"/><path class="cls-2" d="M41.36,58l-2.43-2.06c.25-.37.41-.63.6-.87C46,46.37,46.88,37,43,27c-1-2.47-.64-3.09,2.1-3.7C51.24,31.9,49.13,51.91,41.36,58Z"/></g></g></g></g></svg>