<svg xmlns="http://www.w3.org/2000/svg" viewBox="0 0 64.19 53.54"><defs><style>.cls-1{opacity:0.8;}.cls-2{fill:gray;}</style></defs><title>Decrease speed</title><g id="Layer_2" data-name="Layer 2"><g id="Top_panel" data-name="Top panel"><g id="Status_Panel" data-name="Status Panel"><g id="w6ixaS.tif" class="cls-1"><path class="cls-2" d="M33.35,53.54H31.59c-.77-.55-1.57-1.08-2.31-1.66q-9.21-7.21-18.39-14.45c-3-2.39-6-4.8-9-7.28-2.47-2.07-2.49-4.29-.2-6.53a6,6,0,0,1,.46-.43Q16.35,11.95,30.55.71A3.45,3.45,0,0,1,34.46.5a3.76,3.76,0,0,1,2.42,3.38c0,2.89.08,5.79.11,8.68,0,1.36,0,2.72,0,4.37.69-.52,1.09-.8,1.47-1.11Q47.86,8.44,57.24,1A3.88,3.88,0,0,1,61.8.58a4.15,4.15,0,0,1,2.39,3.95q-.06,22.26,0,44.53a4.05,4.05,0,0,1-1.59,3.37,12.43,12.43,0,0,1-2.07,1.11H59c-.8-.52-1.65-1-2.4-1.57q-9-7-18-14.11l-1.51-1.18c0,.62-.09,1-.09,1.41-.06,3.72-.16,7.45-.14,11.17a4.11,4.11,0,0,1-2.53,3.82C34,53.27,33.69,53.39,33.35,53.54Z"/></g></g></g></g></svg>