<?xml version="1.0" encoding="utf-8"?>
<!-- Generator: Adobe Illustrator 21.0.2, SVG Export Plug-In . SVG Version: 6.00 Build 0)  -->
<svg version="1.1" id="Layer_1" xmlns="http://www.w3.org/2000/svg" xmlns:xlink="http://www.w3.org/1999/xlink" x="0px" y="0px"
	 viewBox="0 0 64.2 53.5" style="enable-background:new 0 0 64.2 53.5;" xml:space="preserve">
<style type="text/css">
	.st0{opacity:0.8;}
	.st1{fill:#555555;}
</style>
<title>Decrease speed</title>
<g id="Layer_2">
	<g id="Top_panel">
		<g id="Status_Panel">
			<g id="w6ixaS.tif" class="st0">
				<path class="st1" d="M33.3,53.5h-1.8c-0.8-0.5-1.6-1.1-2.3-1.7c-6.1-4.8-12.3-9.6-18.4-14.5c-3-2.4-6-4.8-9-7.3
					c-2.5-2.1-2.5-4.3-0.2-6.5c0.1-0.2,0.3-0.3,0.5-0.4c9.5-7.5,18.9-15,28.4-22.5c1.1-0.9,2.7-1,3.9-0.2c1.4,0.5,2.4,1.9,2.4,3.4
					c0,2.9,0.1,5.8,0.1,8.7c0,1.4,0,2.7,0,4.4c0.7-0.5,1.1-0.8,1.5-1.1C44.7,10.9,51,6,57.2,1c1.3-1.1,3.1-1.3,4.6-0.4
					c1.5,0.7,2.5,2.3,2.4,4c0,14.8,0,29.7,0,44.5c0,1.3-0.5,2.6-1.6,3.4c-0.7,0.4-1.3,0.8-2.1,1.1H59c-0.8-0.5-1.7-1-2.4-1.6
					c-6-4.7-12-9.4-18-14.1l-1.5-1.2c0,0.6-0.1,1-0.1,1.4c-0.1,3.7-0.2,7.5-0.1,11.2c0,1.7-1,3.2-2.5,3.8
					C34,53.3,33.7,53.4,33.3,53.5z"/>
			</g>
		</g>
	</g>
</g>
</svg>
