<?xml version="1.0" encoding="utf-8"?>
<!-- Generator: Adobe Illustrator 21.0.2, SVG Export Plug-In . SVG Version: 6.00 Build 0)  -->
<svg version="1.1" id="Layer_1" xmlns="http://www.w3.org/2000/svg" xmlns:xlink="http://www.w3.org/1999/xlink" x="0px" y="0px"
	 viewBox="0 0 58.8 58.8" style="enable-background:new 0 0 58.8 58.8;" xml:space="preserve">
<style type="text/css">
	.st0{opacity:0.8;}
	.st1{fill:#555555;}
</style>
<title>Happy</title>
<g id="Layer_2">
	<g id="Top_panel">
		<g id="Status_Panel">
			<g class="st0">
				<path class="st1" d="M0,29.4C0,13.2,13.2,0,29.4,0s29.4,13.2,29.4,29.4S45.7,58.8,29.4,58.8S0,45.7,0,29.4C0,29.4,0,29.4,0,29.4
					z M53.9,29.4c0-13.5-11-24.5-24.5-24.5S4.9,15.9,4.9,29.4c0,13.5,11,24.5,24.5,24.5C42.9,54,53.9,43,53.9,29.4
					C53.9,29.5,53.9,29.5,53.9,29.4L53.9,29.4z"/>
				<path class="st1" d="M17.8,36.5c2.7,4.3,6.5,6.7,11.6,6.7s8.9-2.4,11.6-6.7l3.8,2.3c-3.3,5.2-7.9,8.3-14.1,8.7
					c-6.8,0.5-13.2-2.9-16.6-8.8L17.8,36.5z"/>
				<path class="st1" d="M19.4,27.7c-1.8,0-3.3-1.5-3.3-3.3c0-1.8,1.5-3.3,3.3-3.3c1.8,0,3.3,1.5,3.3,3.3
					C22.8,26.1,21.3,27.6,19.4,27.7C19.5,27.7,19.4,27.7,19.4,27.7z"/>
				<path class="st1" d="M39.4,27.7c-1.8,0-3.3-1.5-3.3-3.3c0-1.8,1.5-3.3,3.3-3.3c1.8,0,3.3,1.5,3.3,3.3c0,0,0,0,0,0
					C42.7,26.2,41.2,27.7,39.4,27.7z"/>
			</g>
		</g>
	</g>
</g>
</svg>
