<svg xmlns="http://www.w3.org/2000/svg" viewBox="0 0 58.84 58.84"><defs><style>.cls-1{opacity:0.8;}.cls-2{fill:gray;}</style></defs><title>Happy</title><g id="Layer_2" data-name="Layer 2"><g id="Top_panel" data-name="Top panel"><g id="Status_Panel" data-name="Status Panel"><g class="cls-1"><path class="cls-2" d="M0,29.41A29.42,29.42,0,1,1,29.41,58.84,29.42,29.42,0,0,1,0,29.41Zm53.94,0A24.52,24.52,0,1,0,29.38,53.93,24.51,24.51,0,0,0,53.94,29.45Z"/><path class="cls-2" d="M17.84,36.49c2.7,4.26,6.49,6.68,11.58,6.68S38.3,40.76,41,36.49l3.77,2.35c-3.29,5.21-7.93,8.27-14.09,8.74A17.58,17.58,0,0,1,14.1,38.82Z"/><path class="cls-2" d="M19.42,27.66a3.33,3.33,0,1,1,3.34-3.37A3.32,3.32,0,0,1,19.42,27.66Z"/><path class="cls-2" d="M39.41,27.66a3.33,3.33,0,1,1,3.32-3.31A3.33,3.33,0,0,1,39.41,27.66Z"/></g></g></g></g></svg>