<?xml version="1.0" encoding="utf-8"?>
<!-- Generator: Adobe Illustrator 21.0.2, SVG Export Plug-In . SVG Version: 6.00 Build 0)  -->
<svg version="1.1" id="Layer_1" xmlns="http://www.w3.org/2000/svg" xmlns:xlink="http://www.w3.org/1999/xlink" x="0px" y="0px"
	 viewBox="0 0 67.4 70" style="enable-background:new 0 0 67.4 70;" xml:space="preserve">
<style type="text/css">
	.st0{opacity:0.8;}
	.st1{fill:#555555;}
</style>
<title>Increase volume</title>
<g id="Layer_2">
	<g id="Top_panel">
		<g id="Status_Panel">
			<g id="NM85wB.tif" class="st0">
				<path class="st1" d="M31.3,43.7H28c-0.3,0-0.7,0-1,0.1c-0.5,0.2-1.1,0.5-1.6,0.8c0.4,0.4,0.8,0.9,1.2,1.2c1.2,1,2.6,1.9,3.8,2.9
					c1,0.9,0.9,1.8-0.3,2.4c-1.5,0.5-2.4,2.1-2.1,3.7c0.1,0.7,0,1.3-0.1,2c-0.1,1.3-1.2,2.3-2.5,2.2c-0.2,0-0.4-0.1-0.6-0.1
					c-2.3-0.6-4.6-1.2-7-1.8c-1.4-0.3-1.5-0.3-1.5,1.1c0,2,0,4,0,6c0,0.9-0.2,1.2-1.2,1.2c-4.7,0-9.4,0-14.2,0c-0.7,0-1-0.3-1-1.2
					c0-2.1,0-4.2,0-6.4C0,39.8,0,21.7,0,3.6c0-2.9-0.3-2.3,2.3-2.9C13.2-1.6,22.4,1.6,29.6,10c4,4.6,4.9,10.1,3.5,16
					c-0.1,0.7-0.1,1.4,0.2,2c0.9,1.6,2,3,2.8,4.7c0.7,1.3,1.1,2.7,1.4,4.2c0.2,1.2-0.6,1.8-1.8,1.9c-0.9,0-1.8,0-2.7,0
					c-1.2-0.1-1.7,0.2-1.8,1.4S31.3,42.3,31.3,43.7z"/>
				<path class="st1" d="M53.1,67.8c1.7-2.6,3.4-4.8,4.8-7.3c7.7-14,7.8-28.3,1.2-42.8c-0.9-2-0.9-1.9,1-3c0.9-0.5,1.3-0.3,1.8,0.6
					c2.7,4.9,4.4,10.2,5.1,15.8c1.2,9.2-0.1,18.6-3.8,27.1c-1.7,3.8-3.8,7.3-6.4,10.6c-0.3,0.4-0.6,0.7-1,1.2L53.1,67.8z"/>
				<path class="st1" d="M48.6,64l-2.7-2.2C56,48.8,57.3,35,50.2,20.2c0.8-0.4,1.6-0.8,2.4-1.1c0.4,0,0.9,0.2,1.1,0.6
					c1.2,2.6,2.2,5.3,3.1,8c3.2,12.6,0.9,24.2-6.9,34.7C49.5,62.9,49.1,63.4,48.6,64z"/>
				<path class="st1" d="M41.4,58l-2.4-2.1c0.2-0.4,0.4-0.6,0.6-0.9C46,46.4,46.9,37,43,27c-1-2.5-0.6-3.1,2.1-3.7
					C51.2,31.9,49.1,51.9,41.4,58z"/>
			</g>
		</g>
	</g>
</g>
</svg>
