<svg xmlns="http://www.w3.org/2000/svg" viewBox="0 0 64.19 53.54"><defs><style>.cls-1{opacity:0.8;}.cls-2{fill:gray;}</style></defs><title>Increase speed</title><g id="Layer_2" data-name="Layer 2"><g id="Top_panel" data-name="Top panel"><g id="Status_Panel" data-name="Status Panel"><g id="w6ixaS.tif" class="cls-1"><path class="cls-2" d="M30.84,0H32.6c.77.55,1.57,1.08,2.31,1.66q9.21,7.21,18.39,14.45c3,2.39,6,4.8,9,7.28,2.47,2.07,2.49,4.29.2,6.53a6,6,0,0,1-.46.43q-14.2,11.24-28.4,22.48a3.45,3.45,0,0,1-3.91.21,3.76,3.76,0,0,1-2.42-3.38c0-2.89-.08-5.79-.11-8.68,0-1.36,0-2.72,0-4.37-.69.52-1.09.8-1.47,1.11Q16.33,45.1,6.95,52.49A3.88,3.88,0,0,1,2.39,53,4.15,4.15,0,0,1,0,49Q.06,26.75,0,4.49A4.05,4.05,0,0,1,1.59,1.11,12.43,12.43,0,0,1,3.67,0H5.18c.8.52,1.65,1,2.4,1.57q9,7,18,14.11L27,16.86c0-.62.09-1,.09-1.41.06-3.72.16-7.45.14-11.17A4.11,4.11,0,0,1,29.82.45C30.14.27,30.5.15,30.84,0Z"/></g></g></g></g></svg>