<?xml version="1.0" encoding="utf-8"?>
<!-- Generator: Adobe Illustrator 21.0.2, SVG Export Plug-In . SVG Version: 6.00 Build 0)  -->
<svg version="1.1" id="Layer_1" xmlns="http://www.w3.org/2000/svg" xmlns:xlink="http://www.w3.org/1999/xlink" x="0px" y="0px"
	 viewBox="0 0 64.2 53.5" style="enable-background:new 0 0 64.2 53.5;" xml:space="preserve">
<style type="text/css">
	.st0{opacity:0.8;}
	.st1{fill:#555555;}
</style>
<title>Increase speed</title>
<g id="Layer_2">
	<g id="Top_panel">
		<g id="Status_Panel">
			<g id="w6ixaS.tif" class="st0">
				<path class="st1" d="M30.8,0h1.8c0.8,0.6,1.6,1.1,2.3,1.7c6.1,4.8,12.3,9.6,18.4,14.5c3,2.4,6,4.8,9,7.3
					c2.5,2.1,2.5,4.3,0.2,6.5c-0.1,0.2-0.3,0.3-0.5,0.4c-9.5,7.5-18.9,15-28.4,22.5c-1.1,0.9-2.7,1-3.9,0.2
					c-1.4-0.5-2.4-1.9-2.4-3.4c0-2.9-0.1-5.8-0.1-8.7c0-1.4,0-2.7,0-4.4c-0.7,0.5-1.1,0.8-1.5,1.1c-6.3,4.9-12.5,9.8-18.8,14.8
					c-1.2,1.1-3.1,1.4-4.6,0.5c-1.5-0.7-2.5-2.3-2.4-4C0,34.2,0,19.3,0,4.5c-0.1-1.3,0.5-2.6,1.6-3.4C2.2,0.7,2.9,0.3,3.7,0h1.5
					C6,0.5,6.8,1,7.6,1.6c6,4.7,12,9.4,18,14.1l1.4,1.2c0-0.6,0.1-1,0.1-1.4c0.1-3.7,0.2-7.4,0.1-11.2c0-1.7,1-3.2,2.6-3.8
					C30.1,0.3,30.5,0.2,30.8,0z"/>
			</g>
		</g>
	</g>
</g>
</svg>
