<svg xmlns="http://www.w3.org/2000/svg" viewBox="0 0 399.62 495.81"><defs><style>.cls-1{fill:#555;}</style></defs><title>lecturer</title><g id="Layer_2" data-name="Layer 2"><g id="Layer_1-2" data-name="Layer 1"><g id="VMzu8k.tif"><path class="cls-1" d="M334.87,0c5.19,1,10.45,1.86,15.57,3.19C366.35,7.3,380.13,15,390.09,28.38c13.33,18,12.62,40.43-1.8,57.56-12.55,14.91-29.17,22.41-48.09,24.76-7.68,1-15.58.07-23.37.29a14.56,14.56,0,0,0-6.93,1.71,103.56,103.56,0,0,1-41,14.76,31.61,31.61,0,0,1-9.41-.3c-3.9-.68-4.46-2.69-1.5-5.28,7.64-6.68,12-15.41,15.83-24.51,1.1-2.59.78-4.35-1.38-6.49-23.52-23.39-21.38-54.48,5.08-74.57,11.39-8.65,24.38-13.44,38.53-15.22A48.38,48.38,0,0,0,320.87,0ZM303.75,64v-16H288.08V64ZM320,48V63.83h15.83V48Zm32,15.75h15.79V48.11H351.93Z"/><path class="cls-1" d="M255.49,336.47c-1.75,17.65-3.45,35-5.19,52.38q-3.28,32.79-6.6,65.57c-.92,9.11-1.82,18.22-2.86,27.31s-6.76,14-16.24,14q-35.74.07-71.48,0c-14,0-28,0-42,0-9.71,0-15.23-4.77-16.28-14.52-2.46-23-4.64-46-7-69q-3.74-37-7.54-74a11,11,0,0,1,.13-1.73Z"/><path class="cls-1" d="M270.86,351.36c.66-6.68,1.24-13.12,1.94-19.54,1.07-9.77-.87-12-10.55-12l-189.89,0c-8.16,0-10.14,2-9.52,10.1.55,7.09,1.31,14.17,2,21.41-9.76,1.39-17.76.48-24.81-7.29-11.3-12.44-23.59-24-35.58-35.78-3.06-3-4.71-6.24-4.41-10.6.25-3.65,0-7.33.06-11,.1-9.33,5.21-14.43,14.65-14.44q63.71-.05,127.42,0,88.2,0,176.4,0c12.73,0,16.41,4.35,17.3,17,.74,10.41-2.38,17.94-10.21,24.84-10.23,9-19.46,19.16-29.11,28.82C287.2,352.23,285.41,352.84,270.86,351.36Z"/><path class="cls-1" d="M63.26,255.5c.89-15.58.42-31,3-46,3.52-20.85,26.07-35.91,47-33.19,1.34.17,2.91,1.89,3.58,3.27,8.32,17,16.49,34.17,24.71,51.26.5,1,1,2.06,2.27,4.48.73-1.47,1.11-2.34,1.58-3.17,3.89-6.79,7.93-13.5,11.58-20.42a5.41,5.41,0,0,0-.59-4.94c-4.69-5.06-6.55-11.13-7.13-17.73-.56-6.31,2.2-10.84,8.36-11.6a86.8,86.8,0,0,1,20.29-.15c6.47.73,9.25,5.27,8.64,11.84-.63,6.8-2.69,13-7.72,18a4,4,0,0,0-.77,3.7c4.35,7.82,8.94,15.51,14,24.09,1.24-2.23,2.14-3.68,2.88-5.21,7.92-16.5,15.89-33,23.65-49.56,1.39-3,3-4.05,6.34-4.05,24.61,0,43.06,15.8,46,40.26,1,8.06.64,16.29.81,24.44.1,4.79,0,9.59,0,14.68Z"/><path class="cls-1" d="M112.1,103.56c.15-30.43,25.44-55.39,56.09-55.34s55.69,25.57,55.47,56.46c-.21,29.93-25.63,55.24-55.33,55.1A56.08,56.08,0,0,1,112.1,103.56Z"/></g></g></g></svg>