<?xml version="1.0" encoding="utf-8"?>
<!-- Generator: Adobe Illustrator 21.0.2, SVG Export Plug-In . SVG Version: 6.00 Build 0)  -->
<svg version="1.1" id="Layer_1" xmlns="http://www.w3.org/2000/svg" xmlns:xlink="http://www.w3.org/1999/xlink" x="0px" y="0px"
	 viewBox="0 0 50.7 59.1" style="enable-background:new 0 0 50.7 59.1;" xml:space="preserve">
<style type="text/css">
	.st0{opacity:0.8;}
	.st1{fill:#555555;}
</style>
<title>Persons</title>
<g id="Layer_2">
	<g id="Top_panel">
		<g id="Status_Panel">
			<g class="st0">
				<path class="st1" d="M9.2,44c0-1,0-2.1,0-3.2h2.3c0,0.2,0,0.4,0,0.6c0,4.2,0,8.4,0,12.6c0,1.7,0,3.4,0,5.1h27.5
					c0-5.8,0-11.5,0-17.3v-1h2.4v0.8c0,5.7,0,11.3,0,17c0,0.2,0,0.3,0,0.5h9.2c0-7.2,0-14.3,0-21.5c0-2.3-0.5-4.6-1.7-6.7
					c-2.4-4.5-7.2-7.2-12.2-7c-7.2,0-14.5,0-21.8,0c-1.5,0-3,0.1-4.4,0.4C4.3,25.7-0.1,31.3,0,37.7C0,44.1,0,50.6,0,57
					c0,0.7,0,1.4,0,2.1h9.2C9.2,54,9.2,49,9.2,44z"/>
				<path class="st1" d="M25.3,21.2c5.9,0,10.6-4.7,10.7-10.6S31.3,0,25.4,0c-5.8,0-10.6,4.6-10.7,10.4
					C14.7,16.3,19.4,21.1,25.3,21.2C25.3,21.2,25.3,21.2,25.3,21.2z"/>
			</g>
		</g>
	</g>
</g>
</svg>
