<svg xmlns="http://www.w3.org/2000/svg" viewBox="0 0 50.71 59.08"><defs><style>.cls-1{opacity:0.8;}.cls-2{fill:gray;}</style></defs><title>Persons</title><g id="Layer_2" data-name="Layer 2"><g id="Top_panel" data-name="Top panel"><g id="Status_Panel" data-name="Status Panel"><g class="cls-1"><path class="cls-2" d="M9.24,44c0-1.05,0-2.11,0-3.18h2.34c0,.24,0,.43,0,.62q0,6.28,0,12.56,0,2.55,0,5.09H39.1q0-8.65,0-17.31v-1h2.39v.76q0,8.49,0,17,0,.26,0,.53h9.23q0-10.76,0-21.51A12.8,12.8,0,0,0,49,30.9a13.43,13.43,0,0,0-12.25-7c-7.25,0-14.51,0-21.76,0a19.54,19.54,0,0,0-4.45.39A13.49,13.49,0,0,0,0,37.7C0,44.14,0,50.57,0,57q0,1,0,2.06H9.24Q9.24,51.53,9.24,44Z"/><path class="cls-2" d="M25.33,21.21A10.61,10.61,0,1,0,14.77,10.44,10.62,10.62,0,0,0,25.33,21.21Z"/></g></g></g></g></svg>