<svg xmlns="http://www.w3.org/2000/svg" viewBox="0 0 39.53 60"><defs><style>.cls-1{opacity:0.8;}.cls-2{fill:gray;}</style></defs><title>Questions</title><g id="Layer_2" data-name="Layer 2"><g id="Top_panel" data-name="Top panel"><g id="Status_Panel" data-name="Status Panel"><g id="_1CbIZy.tif" data-name="1CbIZy.tif" class="cls-1"><path class="cls-2" d="M20.9,0c1.14.16,2.28.28,3.41.47a22.41,22.41,0,0,1,8.22,3,15.27,15.27,0,0,1,4.14,3.72,14.32,14.32,0,0,1,2.84,8.24A12.93,12.93,0,0,1,37.62,23a19.15,19.15,0,0,1-3.3,4,65,65,0,0,1-6.94,5.32,10.43,10.43,0,0,0-3.9,5.29A9.49,9.49,0,0,1,22.14,40a3.94,3.94,0,0,1-2.9,1.38A5.2,5.2,0,0,1,13,35.79a9.65,9.65,0,0,1,2.68-6.39A47.46,47.46,0,0,1,22,24a17.72,17.72,0,0,0,4.26-4.42c1.59-2.59,1.14-6.9-1.57-8.82a7.79,7.79,0,0,0-3.25-1.32,11.24,11.24,0,0,0-5.35.3A7.2,7.2,0,0,0,11.9,13.6c-.52,1-1,2-1.51,3a6.18,6.18,0,0,1-2,2.41,5.72,5.72,0,0,1-4.46.73,4.93,4.93,0,0,1-2.54-1.26A4.69,4.69,0,0,1,0,14.85,11.68,11.68,0,0,1,2.13,8.4a19,19,0,0,1,9-6.9A23.18,23.18,0,0,1,17.27.07,2,2,0,0,0,17.55,0Z"/><path class="cls-2" d="M17.64,60A19.39,19.39,0,0,1,15,59a6.6,6.6,0,0,1-2.44-8.58,6.63,6.63,0,1,1,10.59,7.68,7,7,0,0,1-3.51,1.83,2.73,2.73,0,0,0-.31.1Z"/></g></g></g></g></svg>