<?xml version="1.0" encoding="utf-8"?>
<!-- Generator: Adobe Illustrator 21.0.2, SVG Export Plug-In . SVG Version: 6.00 Build 0)  -->
<svg version="1.1" id="Layer_1" xmlns="http://www.w3.org/2000/svg" xmlns:xlink="http://www.w3.org/1999/xlink" x="0px" y="0px"
	 viewBox="0 0 39.5 60" style="enable-background:new 0 0 39.5 60;" xml:space="preserve">
<style type="text/css">
	.st0{opacity:0.8;}
	.st1{fill:#555555;}
</style>
<title>Questions</title>
<g id="Layer_2">
	<g id="Top_panel">
		<g id="Status_Panel">
			<g id="_1CbIZy.tif" class="st0">
				<path class="st1" d="M20.9,0c1.1,0.2,2.3,0.3,3.4,0.5c2.9,0.5,5.7,1.5,8.2,3c1.6,1,3,2.2,4.1,3.7c1.8,2.4,2.8,5.3,2.8,8.2
					c0.2,2.7-0.5,5.3-1.9,7.6c-0.9,1.5-2,2.8-3.3,4c-2.2,1.9-4.5,3.7-6.9,5.3c-1.8,1.3-3.2,3.2-3.9,5.3c-0.3,0.9-0.8,1.7-1.3,2.4
					c-0.7,0.9-1.8,1.4-2.9,1.4c-2.8,0.6-5.6-1.2-6.2-4c-0.1-0.5-0.1-1-0.1-1.6c0.1-2.4,1-4.7,2.7-6.4c1.9-2,4.1-3.8,6.3-5.4
					c1.7-1.2,3.1-2.7,4.3-4.4c1.6-2.6,1.1-6.9-1.6-8.8c-1-0.7-2.1-1.1-3.2-1.3c-1.8-0.3-3.6-0.2-5.4,0.3c-1.9,0.7-3.4,2.1-4.2,3.9
					c-0.5,1-1,2-1.5,3c-0.4,1-1.1,1.8-2,2.4c-1.3,0.8-2.9,1.1-4.5,0.7c-1-0.2-1.8-0.6-2.5-1.3c-1-1-1.5-2.3-1.4-3.6
					c0.1-2.3,0.8-4.6,2.1-6.5c2.2-3.2,5.4-5.6,9-6.9c2-0.8,4-1.2,6.1-1.4c0.1,0,0.2,0,0.3-0.1H20.9z"/>
				<path class="st1" d="M17.6,60c-0.9-0.3-1.8-0.6-2.6-1c-2.9-1.8-4-5.5-2.4-8.6c1.6-3.3,5.6-4.6,8.9-3c3.3,1.6,4.6,5.6,3,8.9
					c-0.3,0.7-0.8,1.2-1.3,1.8c-1,0.9-2.2,1.6-3.5,1.8c-0.1,0-0.2,0.1-0.3,0.1L17.6,60z"/>
			</g>
		</g>
	</g>
</g>
</svg>
