<svg xmlns="http://www.w3.org/2000/svg" viewBox="0 0 449 448.26"><defs><style>.cls-1{fill:#f44;}</style></defs><title>remove</title><g id="Layer_2" data-name="Layer 2"><g id="Layer_1-2" data-name="Layer 1"><path class="cls-1" d="M0,67.26v-3c1.51-6,5.23-10.5,9.59-14.77C23.75,35.62,37.7,21.54,51.74,7.56,61.9-2.56,70.83-2.52,81,7.67L209.62,136.25c10.35,10.35,19.34,10.37,29.65.07L368.3,7.46c9.84-9.82,19-9.78,28.91.13,14,14,28,28.1,42.1,42,4.34,4.26,8.1,8.7,9.69,14.68v3c-1.31,6.32-5.25,10.85-9.7,15.27Q375.54,146,312,209.7c-10,10-10,18.92,0,28.93q64.86,64.87,129.73,129.73c9.21,9.21,9.18,18.59-.09,27.84-14.27,14.25-28.4,28.63-42.93,42.61-3.95,3.8-9.11,6.33-13.72,9.44h-5c-4.59-3.13-9.8-5.64-13.68-9.49Q302.47,375.36,239,311.61c-10.13-10.13-19-10.08-29.26.15Q146,375.33,82.41,439c-4.2,4.2-8.54,7.86-14.41,9.3H64c-4.73-3.19-10-5.79-14.07-9.68Q29.22,418.72,9.33,398c-3.78-3.94-6.26-9.14-9.33-13.76q0-2.5,0-5c3.32-4.65,6.07-9.86,10-13.86Q73.13,302,136.55,238.93c10.5-10.49,10.53-19.21.11-29.64Q73.24,145.87,9.78,82.49C5.34,78.07,1.36,73.56,0,67.26Z"/></g></g></svg>