<svg xmlns="http://www.w3.org/2000/svg" viewBox="0 0 431.6 431.63"><defs><style>.cls-1{fill:#555;}</style></defs><title>student</title><g id="Layer_2" data-name="Layer 2"><g id="Layer_1-2" data-name="Layer 1"><g id="AiYEfV.tif"><path class="cls-1" d="M318.27,269.67l-29.56-31.78-1.13.46c0,9.75-.16,19.51.09,29.25a9.93,9.93,0,0,1-3.54,8.19c-10.3,9.72-20.46,19.6-30.59,29.49-17.61,17.19-20.38,38.85-7.75,59.9.33.55.62,1.12,1.17,2.11H144c0-1.94,0-3.72,0-5.5,0-44.33-.06-88.65.1-133,0-4-1.31-6.19-4.7-8.25C112.55,204.18,85.87,187.5,59,171.12c-8.2-5-13-11.88-15.12-21.23q-13-56.63-26.49-113.15C15.54,29,15.63,21.6,19.57,14.5,25,4.73,36.28-1.21,46.69.21c12,1.63,21.11,9.31,23.92,21,7.79,32.5,15.55,65,22.82,97.62,1.57,7.06,4.55,11.63,10.9,15.22,13.18,7.45,25.82,15.85,38.83,23.62A16.22,16.22,0,0,0,151,160c34.83.15,69.66.28,104.48,0,21.54-.15,39.49,7.25,54.4,22.88,21.27,22.31,43,44.22,64.4,66.38,12.67,13.09,12.45,29.27-.58,41.94q-35,34-70.06,67.78c-12,11.52-28.66,11.51-39.76.17s-10.51-28.3,1.26-39.79q24-23.4,48.16-46.56C314.63,271.53,316.43,270.81,318.27,269.67Z"/><path class="cls-1" d="M215.82,431.62H16.35C4.59,431.61,0,427,0,415.35c0-5.33,0-10.67,0-16C0,389,4.93,384,15.3,384q91.49,0,183,0,108,0,216,0c13.15,0,17.32,4.11,17.33,17.27,0,5.17,0,10.33,0,15.5-.06,9.73-5.08,14.8-14.79,14.81q-66,0-132,0Z"/><path class="cls-1" d="M144,71.66A72,72,0,0,1,216.6.06c39,.16,71.28,32.95,71,72.18-.27,39.51-32.88,71.68-72.34,71.4C176,143.35,143.86,110.88,144,71.66Z"/></g></g></g></svg>