<svg id="Layer_1" data-name="Layer 1" xmlns="http://www.w3.org/2000/svg" viewBox="0 0 206.28 39.1"><defs><style>.cls-1{fill:#fff;}</style></defs><title>Kolab-ny</title><path class="cls-1" d="M6.33,17.65,20.41,3.21H27.7L11.34,19.6,27.79,39.4H20.48l-13-16.1L6.33,24.43v15H.86V3.21H6.33Z" transform="translate(-0.86 -0.94)"/><path class="cls-1" d="M94.59,3.21V34.27h10.64V39.4H89.12V3.21Z" transform="translate(-0.86 -0.94)"/><path class="cls-1" d="M141.84,30.61H126.35l-4,8.79h-5.88L134.34.94,151.61,39.4h-6Zm-2.23-5.13-5.37-12.3-5.62,12.3Z" transform="translate(-0.86 -0.94)"/><path class="cls-1" d="M164.44,39.4V3.21h5.44a23.81,23.81,0,0,1,5.79.56,8.7,8.7,0,0,1,3.68,1.9,9.85,9.85,0,0,1,2.41,3.45,10.42,10.42,0,0,1,.91,4.22,8.55,8.55,0,0,1-3,6.59,8.75,8.75,0,0,1,4.55,3.45,10.06,10.06,0,0,1-1.28,12.79,9.85,9.85,0,0,1-4.05,2.51,23.58,23.58,0,0,1-6.16.68Zm5.46-20.65h1.71a6.31,6.31,0,0,0,4.46-1.35,5.23,5.23,0,0,0,1.42-4A5,5,0,0,0,176,9.55a6.06,6.06,0,0,0-4.22-1.32h-1.92Zm0,15.52h3.38q3.7,0,5.44-1.45a5,5,0,0,0,1.83-4,5.1,5.1,0,0,0-1.76-3.94q-1.71-1.57-6.12-1.57H169.9Z" transform="translate(-0.86 -0.94)"/><path class="cls-1" d="M200.62,36.78a3.26,3.26,0,0,1,6.52,0,3.16,3.16,0,0,1-1,2.32,3.31,3.31,0,0,1-4.62,0A3.18,3.18,0,0,1,200.62,36.78Zm.61-5.44V3.21h5.3V31.34Z" transform="translate(-0.86 -0.94)"/><path class="cls-1" d="M68.51,8.07A18.09,18.09,0,0,0,55.25,2.54,18.44,18.44,0,0,0,41.84,8a17.72,17.72,0,0,0-5.6,13.13,17.78,17.78,0,0,0,6.14,14.06,19.12,19.12,0,0,0,26.11-.61,17.79,17.79,0,0,0,5.58-13.24A18.08,18.08,0,0,0,68.51,8.07ZM57.79,34.85h-6V28.9h6ZM57.2,23.73,56.79,26H53l-.85-6,.19-.19c4.68-.19,6.5-1.41,6.5-3.42,0-1.71-1.26-2.68-3.42-2.68a7.65,7.65,0,0,0-5.57,2.56l-3.42-3.75a11.74,11.74,0,0,1,9.1-4c5.35,0,9,2.75,9,7.73C64.52,21,61.25,22.92,57.2,23.73Z" transform="translate(-0.86 -0.94)"/></svg>